{"title":"Madagascar 3 Europe's Most Wanted 2012 DVDRiP XviD AC3 - ILLUMIN","uid":7691393,"size":1641949550,"categoryP":"video","categoryS":"movies","magnet":"?xt=urn:btih:83fea1b4ec022bb3b993f374a860e903424085f2&amp;dn=Madagascar+3+Europe%27s+Most+Wanted+2012+DVDRiP+XviD+AC3+-+ILLUMIN&amp;tr=udp%3A%2F%2Ftracker.openbittorrent.com%3A80&amp;tr=udp%3A%2F%2Fopen.demonii.com%3A1337&amp;tr=udp%3A%2F%2Ftracker.coppersurfer.tk%3A6969&amp;tr=udp%3A%2F%2Fexodus.desync.com%3A6969","seeders":1,"leechers":0,"uploader":"BoomBox3","files":1,"time":1349264033,"description":"Madagascar 3 Europe's Most Wanted 2012 DVDRiP XviD AC3 - ILLUMINATI\n\n\n\nVideo\n\nID                                       : 0\n\nFormat                                   : MPEG-4 Visual\n\nFormat profile                           : Advanced Simple@L5\n\nFormat settings, BVOP                    : 2\n\nFormat settings, QPel                    : No\n\nFormat settings, GMC                     : No warppoints\n\nFormat settings, Matrix                  : Default (H.263)\n\nMuxing mode                              : Packed bitstream\n\nCodec ID                                 : XVID\n\nCodec ID/Hint                            : XviD\n\nDuration                                 : 1h 33mn\n\nBit rate                                 : 1 950 Kbps\n\nWidth                                    : 720 pixels\n\nHeight                                   : 384 pixels\n\nDisplay aspect ratio                     : 1.85:1\n\nFrame rate                               : 23.976 fps\n\nColor space                              : YUV\n\nChroma subsampling                       : 4:2:0\n\nBit depth                                : 8 bits\n\nScan type                                : Progressive\n\nCompression mode                         : Lossy\n\nBits/(Pixel*Frame)                       : 0.294\n\nStream size                              : 1.27 GiB (83%)\n\nWriting library                          : XviD 64\n\n\n\nAudio\n\nID                                       : 1\n\nFormat                                   : AC-3\n\nFormat/Info                              : Audio Coding 3\n\nMode extension                           : CM (complete main)\n\nFormat settings, Endianness              : Big\n\nCodec ID                                 : 2000\n\nDuration                                 : 1h 33mn\n\nBit rate mode                            : Constant\n\nBit rate                                 : 384 Kbps\n\nChannel(s)                               : 6 channels\n\nChannel positions                        : Front: L C R, Side: L R, LFE\n\nSampling rate                            : 48.0 KHz\n\nBit depth                                : 16 bits\n\nCompression mode                         : Lossy\n\nStream size                              : 257 MiB (16%)\n\nAlignment                                : Aligned on interleaves\n\nInterleave, duration                     : 42 ms (1.00 video frame)\n\n\n\n\n\n\n\nSource: DVDR\n\n\n &lt;a href=&quot;\nhttp://i.imgur.com/lfbre.png&quot; rel=&quot;nofollow&quot; target=&quot;_NEW&quot;&gt;\nhttp://i.imgur.com/lfbre.png&lt;/a&gt;\n &lt;a href=&quot;\nhttp://i.imgur.com/ifsGt.png&quot; rel=&quot;nofollow&quot; target=&quot;_NEW&quot;&gt;\nhttp://i.imgur.com/ifsGt.png&lt;/a&gt;\n &lt;a href=&quot;\nhttp://i.imgur.com/37Uu9.png&quot; rel=&quot;nofollow&quot; target=&quot;_NEW&quot;&gt;\nhttp://i.imgur.com/37Uu9.png&lt;/a&gt;\n &lt;a href=&quot;\nhttp://i.imgur.com/2lj5L.png&quot; rel=&quot;nofollow&quot; target=&quot;_NEW&quot;&gt;\nhttp://i.imgur.com/2lj5L.png&lt;/a&gt;","torrent":{"xt":"urn:btih:83fea1b4ec022bb3b993f374a860e903424085f2","amp;dn":"Madagascar+3+Europe%27s+Most+Wanted+2012+DVDRiP+XviD+AC3+-+ILLUMIN","amp;tr":["udp%3A%2F%2Ftracker.openbittorrent.com%3A80","udp%3A%2F%2Fopen.demonii.com%3A1337","udp%3A%2F%2Ftracker.coppersurfer.tk%3A6969","udp%3A%2F%2Fexodus.desync.com%3A6969"],"infoHash":"83fea1b4ec022bb3b993f374a860e903424085f2","infoHashBuffer":{"type":"Buffer","data":[131,254,161,180,236,2,43,179,185,147,243,116,168,96,233,3,66,64,133,242]},"announce":[],"urlList":[]}}